<svg width="27" height="20" viewBox="0 0 27 20" fill="none" xmlns="http://www.w3.org/2000/svg">
<path d="M26.4358 3.12932C26.1253 1.89755 25.2104 0.927448 24.0487 0.598229C21.9431 0 13.5 0 13.5 0C13.5 0 5.05691 0 2.95128 0.598229C1.78962 0.9275 0.874714 1.89755 0.564191 3.12932C0 5.36198 0 10.0202 0 10.0202C0 10.0202 0 14.6784 0.564191 16.9111C0.874714 18.1429 1.78962 19.0726 2.95128 19.4018C5.05691 20 13.5 20 13.5 20C13.5 20 21.9431 20 24.0487 19.4018C25.2104 19.0726 26.1253 18.1429 26.4358 16.9111C27 14.6784 27 10.0202 27 10.0202C27 10.0202 27 5.36198 26.4358 3.12932ZM10.7386 14.2495V5.79089L17.7954 10.0203L10.7386 14.2495Z" fill="white"/>
</svg>
