<svg width="24" height="24" viewBox="0 0 24 24" fill="none" xmlns="http://www.w3.org/2000/svg">
<path d="M2.50368 4.41143C2 5.38105 2 6.65491 2 9.20263V14.7974C2 17.3451 2 18.619 2.50368 19.5886C2.92812 20.4057 3.59434 21.0719 4.41143 21.4963C5.38105 22 6.65491 22 9.20263 22H10.2703V14.7936H7.78943V11.9892H10.2703V9.9157C10.2703 7.51923 11.7903 6.21053 13.9917 6.21053C15.0399 6.21053 15.9484 6.27851 16.2105 6.3295V8.82794H14.6905C13.485 8.82794 13.2579 9.38882 13.2579 10.1876V11.9892H16.1231L15.7388 14.7936H13.2579V22H14.7974C17.3451 22 18.619 22 19.5886 21.4963C20.4057 21.0719 21.0719 20.4057 21.4963 19.5886C22 18.619 22 17.3451 22 14.7974V9.20263C22 6.65491 22 5.38105 21.4963 4.41143C21.0719 3.59434 20.4057 2.92812 19.5886 2.50368C18.619 2 17.3451 2 14.7974 2H9.20263C6.65491 2 5.38105 2 4.41143 2.50368C3.59434 2.92812 2.92812 3.59434 2.50368 4.41143Z" fill="white"/>
</svg>
