<svg width="24" height="24" viewBox="0 0 24 24" fill="none" xmlns="http://www.w3.org/2000/svg">
<path fill-rule="evenodd" clip-rule="evenodd" d="M19.9324 7.98033L19.932 7.97096C19.8681 6.62297 19.5812 5.77851 18.9029 5.10257L18.9002 5.09988C18.2236 4.42313 17.3769 4.13559 16.0247 4.06778L16.0116 4.06712L16.0116 4.06707C14.4362 3.97764 9.56378 3.97764 7.98843 4.06707L7.97919 4.0676L7.96996 4.06804C6.62818 4.13177 5.77937 4.4183 5.09712 5.0981C4.42061 5.77219 4.13579 6.61496 4.06777 7.97205L4.0671 7.98523L4.06706 7.98522C3.97765 9.56098 3.97765 14.4346 4.06706 16.0103L4.06759 16.0197L4.06804 16.029C4.13185 17.377 4.41875 18.2215 5.09712 18.8974C5.7802 19.5781 6.62594 19.8646 7.97524 19.9322L7.98843 19.9329L7.98843 19.9329C9.56378 20.0224 14.4362 20.0224 16.0116 19.9329L16.0209 19.9324L16.0303 19.9319C17.3777 19.8681 18.2218 19.5813 18.8975 18.9028L18.9002 18.9001C19.5769 18.2233 19.8644 17.3762 19.9322 16.0235L19.9329 16.0103L19.9329 16.0103C20.0223 14.4346 20.0223 9.56544 19.9329 7.98969L19.9324 7.98033ZM20.3145 3.68582C21.488 4.85507 21.8539 6.27424 21.9297 7.87638C22.0234 9.52761 22.0234 14.4724 21.9297 16.1236C21.8494 17.7258 21.4835 19.1449 20.3145 20.3142C19.1456 21.4879 17.7267 21.8538 16.1249 21.9297C14.4741 22.0234 9.52593 22.0234 7.87507 21.9297C6.27328 21.8494 4.8589 21.4834 3.68544 20.3142C2.51199 19.1449 2.14612 17.7258 2.07027 16.1236C1.97658 14.4724 1.97658 9.52315 2.07027 7.87192C2.15059 6.26978 2.51199 4.85061 3.68544 3.68136C4.8589 2.51211 6.27775 2.14616 7.87507 2.07029C9.52593 1.97657 14.4741 1.97657 16.1249 2.07029C17.7267 2.15062 19.1456 2.51657 20.3145 3.68582ZM12.0021 8.87207C10.2694 8.87207 8.87549 10.2656 8.87549 11.9998C8.87549 13.734 10.2694 15.1276 12.0021 15.1276C13.7348 15.1276 15.1287 13.734 15.1287 11.9998C15.1287 10.2656 13.7348 8.87207 12.0021 8.87207ZM12.0021 6.87207C9.16439 6.87207 6.87549 9.16148 6.87549 11.9998C6.87549 14.8382 9.16439 17.1276 12.0021 17.1276C14.8398 17.1276 17.1287 14.8382 17.1287 11.9998C17.1287 9.16148 14.8398 6.87207 12.0021 6.87207ZM18.6426 6.7168C18.6426 7.41176 18.0829 7.9668 17.3926 7.9668C16.6976 7.9668 16.1426 7.40709 16.1426 6.7168C16.1426 6.0265 16.7023 5.4668 17.3926 5.4668C18.0829 5.4668 18.6426 6.0265 18.6426 6.7168Z" fill="white"/>
</svg>
