<svg width="24" height="24" viewBox="0 0 24 24" fill="none" xmlns="http://www.w3.org/2000/svg">
<path d="M8.79622 21.8945C7.03188 21.5547 5.36385 20.2487 4.62269 18.6269C4.10809 17.5007 3.91026 16.3101 4.03734 15.1041C4.27283 12.8688 5.35894 11.0384 7.04726 10.031C7.93736 9.50004 9.21266 9.23622 10.1619 9.38655L10.7108 9.47321L10.711 11.2607L10.7111 13.0482L10.1918 13.0248C8.9403 12.9698 8.00799 13.5408 7.52642 14.6555C7.29599 15.1888 7.23762 16.1366 7.3997 16.7139C7.59952 17.4261 8.19036 18.0692 8.90376 18.3514C9.14678 18.4481 9.40973 18.4847 9.86039 18.4831C10.4214 18.4824 10.5244 18.4614 10.9189 18.2626C11.49 17.9749 11.9066 17.5574 12.1516 17.0274C12.3103 16.6839 12.3614 16.4558 12.411 15.8689C12.445 15.4669 12.4738 12.182 12.475 8.56906L12.4766 2H13.5461C14.1344 2 14.841 2.02 15.1163 2.045L15.6168 2.09V2.35399C15.6168 2.98948 15.9656 4.20846 16.3232 4.82262C16.4125 4.97595 16.7244 5.35228 17.0165 5.65894C17.5807 6.25143 18.0567 6.55093 18.7897 6.77426C19.0056 6.84092 19.2333 6.92259 19.2958 6.95592C19.3582 6.98925 19.4761 7.01925 19.5575 7.01925C19.639 7.01992 19.7718 7.03925 19.8528 7.06258L20 7.10425V8.76222V10.4202L19.722 10.3885C18.2185 10.2157 17.0168 9.78837 16.0578 9.08522C15.5811 8.73589 15.5399 8.71522 15.585 8.84822C15.6013 8.89656 15.5897 10.723 15.5594 12.9082C15.5068 16.6961 15.4974 16.9068 15.3594 17.4369C14.8291 19.4739 13.6387 20.9864 12.0714 21.6148C11.1131 21.9992 9.88635 22.1035 8.79558 21.8933L8.79622 21.8945Z" fill="white"/>
</svg>
