<svg width="24" height="24" viewBox="0 0 24 24" fill="none" xmlns="http://www.w3.org/2000/svg">
<path d="M24 4.74786C23.1172 5.12945 22.1691 5.38741 21.1722 5.50336C22.1896 4.90987 22.969 3.9694 23.3371 2.85008C22.3706 3.40926 21.3129 3.80292 20.2098 4.01397C19.3122 3.08191 18.0322 2.5 16.6161 2.5C13.8978 2.5 11.6934 4.64658 11.6934 7.29603C11.6934 7.67142 11.7368 8.03766 11.8202 8.38928C7.72833 8.18896 4.1006 6.2796 1.67237 3.37832C1.24837 4.08689 1.00567 4.91074 1.00567 5.78974C1.00567 7.45345 1.87497 8.92136 3.19584 9.78123C2.41391 9.75763 1.64913 9.55203 0.965445 9.18162V9.24222C0.965445 11.5662 2.66228 13.5039 4.91473 13.9446C4.50096 14.0551 4.06673 14.1128 3.6175 14.1128C3.29987 14.1128 2.99172 14.0835 2.69069 14.0283C3.31722 15.9331 5.1355 17.3196 7.28933 17.3588C5.60431 18.6455 3.48112 19.4125 1.17509 19.4125C0.77791 19.4125 0.385365 19.3894 0 19.3442C2.17918 20.7054 4.7666 21.5 7.54708 21.5C16.6026 21.5 21.5552 14.1919 21.5552 7.85423C21.5552 7.64617 21.5505 7.43965 21.5402 7.23387C22.5051 6.554 23.338 5.71219 24 4.74786Z" fill="white"/>
</svg>
